<svg width="463" height="281" viewBox="0 0 463 281" fill="none" xmlns="http://www.w3.org/2000/svg">
<rect width="463" height="281" fill="#113A7A"/>
<path d="M82.875 58.3438H106.156V63.9062H89.125V76.0938H106.156V81.6562H89.125V102H82.875V58.3438ZM176.1 91.875V98.75C171.517 101.25 166.225 102.5 160.225 102.5C155.35 102.5 151.215 101.521 147.819 99.5625C144.423 97.6042 141.735 94.9062 139.756 91.4688C137.777 88.0312 136.787 84.3125 136.787 80.3125C136.787 73.9583 139.048 68.6146 143.569 64.2812C148.11 59.9479 153.704 57.7812 160.35 57.7812C164.933 57.7812 170.027 58.9792 175.631 61.375V68.0938C170.527 65.1771 165.537 63.7188 160.662 63.7188C155.662 63.7188 151.506 65.3021 148.194 68.4688C144.902 71.6146 143.256 75.5625 143.256 80.3125C143.256 85.1042 144.881 89.0417 148.131 92.125C151.381 95.2083 155.537 96.75 160.6 96.75C165.892 96.75 171.058 95.125 176.1 91.875ZM247.012 91.875V98.75C242.429 101.25 237.137 102.5 231.137 102.5C226.262 102.5 222.127 101.521 218.731 99.5625C215.335 97.6042 212.648 94.9062 210.669 91.4688C208.69 88.0312 207.7 84.3125 207.7 80.3125C207.7 73.9583 209.96 68.6146 214.481 64.2812C219.023 59.9479 224.617 57.7812 231.262 57.7812C235.846 57.7812 240.94 58.9792 246.544 61.375V68.0938C241.44 65.1771 236.45 63.7188 231.575 63.7188C226.575 63.7188 222.419 65.3021 219.106 68.4688C215.815 71.6146 214.169 75.5625 214.169 80.3125C214.169 85.1042 215.794 89.0417 219.044 92.125C222.294 95.2083 226.45 96.75 231.512 96.75C236.804 96.75 241.971 95.125 247.012 91.875Z" fill="white"/>
<path d="M87.7969 159H80.4062V137.172H86.125C87.9271 137.172 89.3333 137.417 90.3438 137.906C91.3542 138.385 92.125 139.052 92.6562 139.906C93.1875 140.75 93.4531 141.729 93.4531 142.844C93.4531 144.99 92.3438 146.526 90.125 147.453C91.7188 147.755 92.9844 148.411 93.9219 149.422C94.8698 150.432 95.3438 151.641 95.3438 153.047C95.3438 154.161 95.0573 155.156 94.4844 156.031C93.9115 156.906 93.0677 157.62 91.9531 158.172C90.849 158.724 89.4635 159 87.7969 159ZM86.2188 139.953H83.5312V146.516H85.6094C87.276 146.516 88.4583 146.198 89.1562 145.562C89.8646 144.927 90.2188 144.104 90.2188 143.094C90.2188 141 88.8854 139.953 86.2188 139.953ZM86.4531 149.297H83.5312V156.219H86.6094C88.3177 156.219 89.474 156.089 90.0781 155.828C90.6927 155.557 91.1823 155.141 91.5469 154.578C91.9219 154.016 92.1094 153.411 92.1094 152.766C92.1094 152.099 91.9115 151.49 91.5156 150.938C91.1302 150.385 90.5781 149.974 89.8594 149.703C89.1406 149.432 88.0052 149.297 86.4531 149.297ZM113.894 144.625V147.922L114.05 147.672C115.425 145.453 116.8 144.344 118.175 144.344C119.248 144.344 120.368 144.885 121.534 145.969L120.034 148.469C119.045 147.531 118.128 147.062 117.284 147.062C116.368 147.062 115.571 147.5 114.894 148.375C114.227 149.25 113.894 150.286 113.894 151.484V159H111.034V144.625H113.894ZM142.397 144.594C144.584 144.594 146.402 145.302 147.85 146.719C149.298 148.125 150.022 149.896 150.022 152.031C150.022 154.104 149.287 155.828 147.819 157.203C146.35 158.568 144.501 159.25 142.272 159.25C140.116 159.25 138.314 158.557 136.866 157.172C135.418 155.776 134.694 154.036 134.694 151.953C134.694 149.849 135.423 148.099 136.881 146.703C138.35 145.297 140.189 144.594 142.397 144.594ZM142.241 147.156C140.876 147.156 139.756 147.604 138.881 148.5C138.006 149.396 137.569 150.536 137.569 151.922C137.569 153.297 138.017 154.422 138.912 155.297C139.808 156.161 140.959 156.594 142.366 156.594C143.761 156.594 144.902 156.156 145.787 155.281C146.683 154.396 147.131 153.266 147.131 151.891C147.131 150.526 146.668 149.396 145.741 148.5C144.814 147.604 143.647 147.156 142.241 147.156ZM175.009 150.359V156.469C175.009 156.958 175.176 157.203 175.509 157.203C175.853 157.203 176.39 156.948 177.119 156.438V158.172C176.473 158.589 175.952 158.87 175.556 159.016C175.171 159.172 174.765 159.25 174.338 159.25C173.119 159.25 172.4 158.771 172.181 157.812C170.973 158.75 169.686 159.219 168.322 159.219C167.322 159.219 166.489 158.891 165.822 158.234C165.155 157.568 164.822 156.734 164.822 155.734C164.822 154.828 165.145 154.021 165.791 153.312C166.447 152.594 167.374 152.026 168.572 151.609L172.213 150.359V149.594C172.213 147.865 171.348 147 169.619 147C168.067 147 166.556 147.802 165.088 149.406V146.297C166.192 144.995 167.78 144.344 169.853 144.344C171.405 144.344 172.65 144.75 173.588 145.562C173.9 145.823 174.181 146.172 174.431 146.609C174.681 147.036 174.838 147.469 174.9 147.906C174.973 148.333 175.009 149.151 175.009 150.359ZM172.213 156.156V151.891L170.306 152.625C169.338 153.01 168.65 153.401 168.244 153.797C167.848 154.182 167.65 154.667 167.65 155.25C167.65 155.844 167.838 156.328 168.213 156.703C168.598 157.078 169.093 157.266 169.697 157.266C170.603 157.266 171.442 156.896 172.213 156.156ZM202.028 137.172H204.887V159H198.809C196.684 159 194.986 158.328 193.716 156.984C192.455 155.641 191.825 153.839 191.825 151.578C191.825 149.464 192.486 147.724 193.809 146.359C195.143 144.995 196.841 144.312 198.903 144.312C199.861 144.312 200.903 144.516 202.028 144.922V137.172ZM202.028 156.562V147.453C201.143 147.005 200.247 146.781 199.341 146.781C197.924 146.781 196.794 147.245 195.95 148.172C195.117 149.099 194.7 150.349 194.7 151.922C194.7 153.401 195.065 154.542 195.794 155.344C196.231 155.823 196.695 156.146 197.184 156.312C197.674 156.479 198.554 156.562 199.825 156.562H202.028ZM221.422 137.172H224.266V145.656C225.495 144.76 226.807 144.312 228.203 144.312C230.026 144.312 231.516 145 232.672 146.375C233.828 147.75 234.406 149.516 234.406 151.672C234.406 153.984 233.714 155.828 232.328 157.203C230.953 158.568 229.109 159.25 226.797 159.25C225.87 159.25 224.891 159.151 223.859 158.953C222.839 158.755 222.026 158.505 221.422 158.203V137.172ZM224.266 148.375V156.156C225.234 156.448 226.229 156.594 227.25 156.594C228.51 156.594 229.536 156.146 230.328 155.25C231.13 154.354 231.531 153.203 231.531 151.797C231.531 150.37 231.156 149.208 230.406 148.312C229.667 147.417 228.698 146.969 227.5 146.969C226.438 146.969 225.359 147.438 224.266 148.375ZM259.378 150.359V156.469C259.378 156.958 259.545 157.203 259.878 157.203C260.222 157.203 260.758 156.948 261.488 156.438V158.172C260.842 158.589 260.321 158.87 259.925 159.016C259.54 159.172 259.133 159.25 258.706 159.25C257.488 159.25 256.769 158.771 256.55 157.812C255.342 158.75 254.055 159.219 252.691 159.219C251.691 159.219 250.857 158.891 250.191 158.234C249.524 157.568 249.191 156.734 249.191 155.734C249.191 154.828 249.514 154.021 250.159 153.312C250.816 152.594 251.743 152.026 252.941 151.609L256.581 150.359V149.594C256.581 147.865 255.717 147 253.988 147C252.435 147 250.925 147.802 249.456 149.406V146.297C250.56 144.995 252.149 144.344 254.222 144.344C255.774 144.344 257.019 144.75 257.956 145.562C258.269 145.823 258.55 146.172 258.8 146.609C259.05 147.036 259.206 147.469 259.269 147.906C259.342 148.333 259.378 149.151 259.378 150.359ZM256.581 156.156V151.891L254.675 152.625C253.706 153.01 253.019 153.401 252.613 153.797C252.217 154.182 252.019 154.667 252.019 155.25C252.019 155.844 252.206 156.328 252.581 156.703C252.967 157.078 253.461 157.266 254.066 157.266C254.972 157.266 255.81 156.896 256.581 156.156ZM279.647 144.625V146.453C280.918 145.047 282.36 144.344 283.975 144.344C284.871 144.344 285.704 144.578 286.475 145.047C287.246 145.505 287.829 146.141 288.225 146.953C288.631 147.755 288.834 149.031 288.834 150.781V159H285.991V150.812C285.991 149.344 285.767 148.297 285.319 147.672C284.871 147.036 284.121 146.719 283.069 146.719C281.725 146.719 280.584 147.391 279.647 148.734V159H276.741V144.625H279.647ZM315.197 137.172H318.056V159H311.978C309.853 159 308.155 158.328 306.884 156.984C305.624 155.641 304.994 153.839 304.994 151.578C304.994 149.464 305.655 147.724 306.978 146.359C308.311 144.995 310.009 144.312 312.072 144.312C313.03 144.312 314.072 144.516 315.197 144.922V137.172ZM315.197 156.562V147.453C314.311 147.005 313.416 146.781 312.509 146.781C311.093 146.781 309.962 147.245 309.119 148.172C308.285 149.099 307.869 150.349 307.869 151.922C307.869 153.401 308.233 154.542 308.962 155.344C309.4 155.823 309.864 156.146 310.353 156.312C310.843 156.479 311.723 156.562 312.994 156.562H315.197ZM80.4375 195.969V174.172H87.7969C90.7656 174.172 93.1146 174.62 94.8438 175.516C96.5729 176.401 97.9479 177.708 98.9688 179.438C99.9896 181.167 100.5 183.052 100.5 185.094C100.5 186.552 100.219 187.948 99.6562 189.281C99.0938 190.615 98.2917 191.786 97.25 192.797C96.1875 193.839 94.9531 194.625 93.5469 195.156C92.724 195.479 91.9688 195.698 91.2812 195.812C90.5938 195.917 89.2812 195.969 87.3438 195.969H80.4375ZM87.4688 176.953H83.5625V193.188H87.5625C89.125 193.188 90.3385 193.083 91.2031 192.875C92.0677 192.656 92.7865 192.385 93.3594 192.062C93.9427 191.729 94.474 191.323 94.9531 190.844C96.4948 189.281 97.2656 187.307 97.2656 184.922C97.2656 182.578 96.474 180.667 94.8906 179.188C94.3073 178.635 93.6354 178.182 92.875 177.828C92.125 177.474 91.4115 177.24 90.7344 177.125C90.0573 177.01 88.9688 176.953 87.4688 176.953ZM125.847 187.359V193.469C125.847 193.958 126.014 194.203 126.347 194.203C126.691 194.203 127.227 193.948 127.956 193.438V195.172C127.31 195.589 126.79 195.87 126.394 196.016C126.008 196.172 125.602 196.25 125.175 196.25C123.956 196.25 123.237 195.771 123.019 194.812C121.81 195.75 120.524 196.219 119.159 196.219C118.159 196.219 117.326 195.891 116.659 195.234C115.993 194.568 115.659 193.734 115.659 192.734C115.659 191.828 115.982 191.021 116.628 190.312C117.284 189.594 118.211 189.026 119.409 188.609L123.05 187.359V186.594C123.05 184.865 122.185 184 120.456 184C118.904 184 117.394 184.802 115.925 186.406V183.297C117.029 181.995 118.618 181.344 120.691 181.344C122.243 181.344 123.487 181.75 124.425 182.562C124.737 182.823 125.019 183.172 125.269 183.609C125.519 184.036 125.675 184.469 125.737 184.906C125.81 185.333 125.847 186.151 125.847 187.359ZM123.05 193.156V188.891L121.144 189.625C120.175 190.01 119.487 190.401 119.081 190.797C118.685 191.182 118.487 191.667 118.487 192.25C118.487 192.844 118.675 193.328 119.05 193.703C119.435 194.078 119.93 194.266 120.534 194.266C121.441 194.266 122.279 193.896 123.05 193.156ZM141.256 183.906L146.6 178.656V181.625H151.147V184.188H146.6V191.234C146.6 192.88 147.282 193.703 148.647 193.703C149.668 193.703 150.746 193.359 151.881 192.672V195.328C150.787 195.943 149.595 196.25 148.303 196.25C147.001 196.25 145.918 195.87 145.053 195.109C144.782 194.88 144.558 194.625 144.381 194.344C144.204 194.052 144.053 193.677 143.928 193.219C143.814 192.75 143.756 191.865 143.756 190.562V184.188H141.256V183.906ZM175.759 187.359V193.469C175.759 193.958 175.926 194.203 176.259 194.203C176.603 194.203 177.14 193.948 177.869 193.438V195.172C177.223 195.589 176.702 195.87 176.306 196.016C175.921 196.172 175.515 196.25 175.088 196.25C173.869 196.25 173.15 195.771 172.931 194.812C171.723 195.75 170.436 196.219 169.072 196.219C168.072 196.219 167.239 195.891 166.572 195.234C165.905 194.568 165.572 193.734 165.572 192.734C165.572 191.828 165.895 191.021 166.541 190.312C167.197 189.594 168.124 189.026 169.322 188.609L172.963 187.359V186.594C172.963 184.865 172.098 184 170.369 184C168.817 184 167.306 184.802 165.838 186.406V183.297C166.942 181.995 168.53 181.344 170.603 181.344C172.155 181.344 173.4 181.75 174.338 182.562C174.65 182.823 174.931 183.172 175.181 183.609C175.431 184.036 175.588 184.469 175.65 184.906C175.723 185.333 175.759 186.151 175.759 187.359ZM172.963 193.156V188.891L171.056 189.625C170.088 190.01 169.4 190.401 168.994 190.797C168.598 191.182 168.4 191.667 168.4 192.25C168.4 192.844 168.588 193.328 168.963 193.703C169.348 194.078 169.843 194.266 170.447 194.266C171.353 194.266 172.192 193.896 172.963 193.156ZM99.2188 227.938V231.375C96.9271 232.625 94.2812 233.25 91.2812 233.25C88.8438 233.25 86.776 232.76 85.0781 231.781C83.3802 230.802 82.0365 229.453 81.0469 227.734C80.0573 226.016 79.5625 224.156 79.5625 222.156C79.5625 218.979 80.6927 216.307 82.9531 214.141C85.224 211.974 88.0208 210.891 91.3438 210.891C93.6354 210.891 96.1823 211.49 98.9844 212.688V216.047C96.4323 214.589 93.9375 213.859 91.5 213.859C89 213.859 86.9219 214.651 85.2656 216.234C83.6198 217.807 82.7969 219.781 82.7969 222.156C82.7969 224.552 83.6094 226.521 85.2344 228.062C86.8594 229.604 88.9375 230.375 91.4688 230.375C94.1146 230.375 96.6979 229.562 99.2188 227.938ZM122.347 218.594C124.534 218.594 126.352 219.302 127.8 220.719C129.248 222.125 129.972 223.896 129.972 226.031C129.972 228.104 129.237 229.828 127.769 231.203C126.3 232.568 124.451 233.25 122.222 233.25C120.066 233.25 118.264 232.557 116.816 231.172C115.368 229.776 114.644 228.036 114.644 225.953C114.644 223.849 115.373 222.099 116.831 220.703C118.3 219.297 120.139 218.594 122.347 218.594ZM122.191 221.156C120.826 221.156 119.706 221.604 118.831 222.5C117.956 223.396 117.519 224.536 117.519 225.922C117.519 227.297 117.967 228.422 118.862 229.297C119.758 230.161 120.909 230.594 122.316 230.594C123.711 230.594 124.852 230.156 125.737 229.281C126.633 228.396 127.081 227.266 127.081 225.891C127.081 224.526 126.618 223.396 125.691 222.5C124.764 221.604 123.597 221.156 122.191 221.156ZM145.991 211.172H148.834V233H145.991V211.172ZM165.822 211.172H168.666V233H165.822V211.172ZM197.841 226.062H187.731C187.804 227.438 188.262 228.531 189.106 229.344C189.96 230.156 191.059 230.562 192.403 230.562C194.278 230.562 196.007 229.979 197.591 228.812V231.594C196.716 232.177 195.846 232.594 194.981 232.844C194.127 233.094 193.122 233.219 191.966 233.219C190.382 233.219 189.101 232.891 188.122 232.234C187.143 231.578 186.356 230.698 185.762 229.594C185.179 228.479 184.887 227.193 184.887 225.734C184.887 223.547 185.507 221.771 186.747 220.406C187.986 219.031 189.596 218.344 191.575 218.344C193.481 218.344 195.002 219.01 196.137 220.344C197.273 221.677 197.841 223.464 197.841 225.703V226.062ZM187.794 224.359H195.028C194.955 223.224 194.617 222.349 194.012 221.734C193.408 221.12 192.596 220.812 191.575 220.812C190.554 220.812 189.716 221.12 189.059 221.734C188.414 222.349 187.992 223.224 187.794 224.359ZM224.516 229.641V232.453C223.089 232.984 221.693 233.25 220.328 233.25C218.078 233.25 216.281 232.583 214.938 231.25C213.604 229.917 212.938 228.13 212.938 225.891C212.938 223.63 213.589 221.807 214.891 220.422C216.193 219.036 217.906 218.344 220.031 218.344C220.771 218.344 221.432 218.417 222.016 218.562C222.609 218.698 223.339 218.958 224.203 219.344V222.375C222.766 221.458 221.432 221 220.203 221C218.922 221 217.87 221.453 217.047 222.359C216.224 223.255 215.812 224.401 215.812 225.797C215.812 227.266 216.255 228.432 217.141 229.297C218.036 230.161 219.24 230.594 220.75 230.594C221.844 230.594 223.099 230.276 224.516 229.641ZM238.55 220.906L243.894 215.656V218.625H248.441V221.188H243.894V228.234C243.894 229.88 244.576 230.703 245.941 230.703C246.961 230.703 248.04 230.359 249.175 229.672V232.328C248.081 232.943 246.889 233.25 245.597 233.25C244.295 233.25 243.211 232.87 242.347 232.109C242.076 231.88 241.852 231.625 241.675 231.344C241.498 231.052 241.347 230.677 241.222 230.219C241.107 229.75 241.05 228.865 241.05 227.562V221.188H238.55V220.906ZM265.491 212.578C265.959 212.578 266.36 212.74 266.694 213.062C267.027 213.385 267.194 213.781 267.194 214.25C267.194 214.708 267.027 215.104 266.694 215.438C266.36 215.771 265.959 215.938 265.491 215.938C265.053 215.938 264.668 215.771 264.334 215.438C264.001 215.094 263.834 214.698 263.834 214.25C263.834 213.812 264.001 213.427 264.334 213.094C264.668 212.75 265.053 212.578 265.491 212.578ZM264.084 218.625H266.928V233H264.084V218.625ZM290.728 218.594C292.916 218.594 294.733 219.302 296.181 220.719C297.629 222.125 298.353 223.896 298.353 226.031C298.353 228.104 297.619 229.828 296.15 231.203C294.681 232.568 292.832 233.25 290.603 233.25C288.447 233.25 286.645 232.557 285.197 231.172C283.749 229.776 283.025 228.036 283.025 225.953C283.025 223.849 283.754 222.099 285.212 220.703C286.681 219.297 288.52 218.594 290.728 218.594ZM290.572 221.156C289.207 221.156 288.087 221.604 287.212 222.5C286.337 223.396 285.9 224.536 285.9 225.922C285.9 227.297 286.348 228.422 287.244 229.297C288.14 230.161 289.291 230.594 290.697 230.594C292.093 230.594 293.233 230.156 294.119 229.281C295.015 228.396 295.462 227.266 295.462 225.891C295.462 224.526 294.999 223.396 294.072 222.5C293.145 221.604 291.978 221.156 290.572 221.156ZM317.153 218.625V220.453C318.424 219.047 319.867 218.344 321.481 218.344C322.377 218.344 323.21 218.578 323.981 219.047C324.752 219.505 325.335 220.141 325.731 220.953C326.137 221.755 326.341 223.031 326.341 224.781V233H323.497V224.812C323.497 223.344 323.273 222.297 322.825 221.672C322.377 221.036 321.627 220.719 320.575 220.719C319.231 220.719 318.091 221.391 317.153 222.734V233H314.247V218.625H317.153Z" fill="white"/>
</svg>
