<svg width="463" height="299" viewBox="0 0 463 299" fill="none" xmlns="http://www.w3.org/2000/svg">
<rect width="463" height="299" fill="#242424"/>
<path d="M77.875 61.0982H101.156V66.6607H84.125V78.8482H101.156V84.4107H84.125V104.754H77.875V61.0982ZM168.225 61.0982H174.037V104.754H167.756V70.7857L154.319 87.6607H153.162L139.6 70.7857V104.754H133.35V61.0982H139.225L153.756 79.0357L168.225 61.0982ZM208.731 104.754V61.0357H222.575C226.742 61.0357 230.065 62.1607 232.544 64.4107C235.023 66.6607 236.262 69.6815 236.262 73.4732C236.262 76.0149 235.627 78.2649 234.356 80.2232C233.085 82.1815 231.346 83.6086 229.137 84.5045C226.929 85.3795 223.762 85.817 219.637 85.817H215.012V104.754H208.731ZM221.481 66.5982H215.012V80.2545H221.856C224.398 80.2545 226.356 79.6607 227.731 78.4732C229.106 77.2649 229.794 75.5461 229.794 73.317C229.794 68.8378 227.023 66.5982 221.481 66.5982Z" fill="#30C124"/>
<path d="M80.4375 145.435H92.0781V148.216H83.5625V154.31H92.0781V157.091H83.5625V167.263H80.4375V145.435ZM109.316 146.841C109.784 146.841 110.185 147.003 110.519 147.326C110.852 147.649 111.019 148.045 111.019 148.513C111.019 148.972 110.852 149.368 110.519 149.701C110.185 150.034 109.784 150.201 109.316 150.201C108.878 150.201 108.493 150.034 108.159 149.701C107.826 149.357 107.659 148.961 107.659 148.513C107.659 148.076 107.826 147.69 108.159 147.357C108.493 147.013 108.878 146.841 109.316 146.841ZM107.909 152.888H110.753V167.263H107.909V152.888ZM130.522 152.888V154.716C131.793 153.31 133.235 152.607 134.85 152.607C135.746 152.607 136.579 152.841 137.35 153.31C138.121 153.769 138.704 154.404 139.1 155.216C139.506 156.019 139.709 157.295 139.709 159.045V167.263H136.866V159.076C136.866 157.607 136.642 156.56 136.194 155.935C135.746 155.3 134.996 154.982 133.944 154.982C132.6 154.982 131.459 155.654 130.522 156.998V167.263H127.616V152.888H130.522ZM166.072 145.435H168.931V167.263H162.853C160.728 167.263 159.03 166.591 157.759 165.248C156.499 163.904 155.869 162.102 155.869 159.841C155.869 157.727 156.53 155.987 157.853 154.623C159.186 153.258 160.884 152.576 162.947 152.576C163.905 152.576 164.947 152.779 166.072 153.185V145.435ZM166.072 164.826V155.716C165.186 155.269 164.291 155.045 163.384 155.045C161.968 155.045 160.838 155.508 159.994 156.435C159.16 157.362 158.744 158.612 158.744 160.185C158.744 161.664 159.108 162.805 159.838 163.607C160.275 164.086 160.739 164.409 161.228 164.576C161.718 164.743 162.598 164.826 163.869 164.826H166.072ZM97.7812 182.435H100.688V204.263H97.5469V187.279L90.8281 195.716H90.25L83.4688 187.279V204.263H80.3438V182.435H83.2812L90.5469 191.404L97.7812 182.435ZM126.612 189.888H129.816L119.644 211.591H116.472L121.362 201.185L115.8 189.888H119.034L122.909 197.998L126.612 189.888ZM80.2344 241.263V219.404H87.1562C89.2396 219.404 90.901 219.966 92.1406 221.091C93.3802 222.216 94 223.727 94 225.623C94 226.894 93.6823 228.019 93.0469 228.998C92.4115 229.977 91.5417 230.69 90.4375 231.138C89.3333 231.576 87.75 231.795 85.6875 231.795H83.375V241.263H80.2344ZM86.6094 222.185H83.375V229.013H86.7969C88.0677 229.013 89.0469 228.716 89.7344 228.123C90.4219 227.519 90.7656 226.659 90.7656 225.545C90.7656 223.305 89.3802 222.185 86.6094 222.185ZM115.191 226.857C117.378 226.857 119.196 227.565 120.644 228.982C122.092 230.388 122.816 232.159 122.816 234.295C122.816 236.368 122.081 238.091 120.612 239.466C119.144 240.831 117.295 241.513 115.066 241.513C112.909 241.513 111.107 240.821 109.659 239.435C108.211 238.039 107.487 236.3 107.487 234.216C107.487 232.112 108.217 230.362 109.675 228.966C111.144 227.56 112.982 226.857 115.191 226.857ZM115.034 229.42C113.67 229.42 112.55 229.868 111.675 230.763C110.8 231.659 110.362 232.8 110.362 234.185C110.362 235.56 110.81 236.685 111.706 237.56C112.602 238.425 113.753 238.857 115.159 238.857C116.555 238.857 117.696 238.42 118.581 237.545C119.477 236.659 119.925 235.529 119.925 234.154C119.925 232.789 119.461 231.659 118.534 230.763C117.607 229.868 116.441 229.42 115.034 229.42ZM156.412 226.888H159.459L153.116 241.513H152.225L147.959 231.498L143.772 241.513H142.85L136.444 226.888H139.491L143.256 235.607L146.912 226.888H149.022L152.662 235.607L156.412 226.888ZM185.884 234.326H175.775C175.848 235.701 176.306 236.795 177.15 237.607C178.004 238.42 179.103 238.826 180.447 238.826C182.322 238.826 184.051 238.243 185.634 237.076V239.857C184.759 240.44 183.89 240.857 183.025 241.107C182.171 241.357 181.166 241.482 180.009 241.482C178.426 241.482 177.145 241.154 176.166 240.498C175.186 239.841 174.4 238.961 173.806 237.857C173.223 236.743 172.931 235.456 172.931 233.998C172.931 231.81 173.551 230.034 174.791 228.67C176.03 227.295 177.64 226.607 179.619 226.607C181.525 226.607 183.046 227.274 184.181 228.607C185.317 229.94 185.884 231.727 185.884 233.966V234.326ZM175.838 232.623H183.072C182.999 231.487 182.66 230.612 182.056 229.998C181.452 229.383 180.64 229.076 179.619 229.076C178.598 229.076 177.759 229.383 177.103 229.998C176.457 230.612 176.035 231.487 175.838 232.623ZM204.825 226.888V230.185L204.981 229.935C206.356 227.716 207.731 226.607 209.106 226.607C210.179 226.607 211.299 227.149 212.466 228.232L210.966 230.732C209.976 229.795 209.059 229.326 208.216 229.326C207.299 229.326 206.502 229.763 205.825 230.638C205.158 231.513 204.825 232.55 204.825 233.748V241.263H201.966V226.888H204.825Z" fill="white"/>
</svg>
