<svg width="463" height="299" viewBox="0 0 463 299" fill="none" xmlns="http://www.w3.org/2000/svg">
<rect width="463" height="299" fill="#222123"/>
<path d="M77.4688 105V61.2812H91.3125C95.4792 61.2812 98.8021 62.4062 101.281 64.6562C103.76 66.9062 105 69.9271 105 73.7188C105 76.2604 104.365 78.5104 103.094 80.4688C101.823 82.4271 100.083 83.8542 97.875 84.75C95.6667 85.625 92.5 86.0625 88.375 86.0625H83.75V105H77.4688ZM90.2188 66.8438H83.75V80.5H90.5938C93.1354 80.5 95.0938 79.9062 96.4688 78.7188C97.8438 77.5104 98.5312 75.7917 98.5312 73.5625C98.5312 69.0833 95.7604 66.8438 90.2188 66.8438ZM153.319 87.7188V99.9375C153.319 100.917 153.652 101.406 154.319 101.406C155.006 101.406 156.079 100.896 157.537 99.875V103.344C156.246 104.177 155.204 104.74 154.412 105.031C153.642 105.344 152.829 105.5 151.975 105.5C149.537 105.5 148.1 104.542 147.662 102.625C145.246 104.5 142.673 105.438 139.944 105.438C137.944 105.438 136.277 104.781 134.944 103.469C133.61 102.135 132.944 100.469 132.944 98.4688C132.944 96.6562 133.59 95.0417 134.881 93.625C136.194 92.1875 138.048 91.0521 140.444 90.2188L147.725 87.7188V86.1875C147.725 82.7292 145.996 81 142.537 81C139.433 81 136.412 82.6042 133.475 85.8125V79.5938C135.683 76.9896 138.86 75.6875 143.006 75.6875C146.11 75.6875 148.6 76.5 150.475 78.125C151.1 78.6458 151.662 79.3438 152.162 80.2188C152.662 81.0729 152.975 81.9375 153.1 82.8125C153.246 83.6667 153.319 85.3021 153.319 87.7188ZM147.725 99.3125V90.7812L143.912 92.25C141.975 93.0208 140.6 93.8021 139.787 94.5938C138.996 95.3646 138.6 96.3333 138.6 97.5C138.6 98.6875 138.975 99.6562 139.725 100.406C140.496 101.156 141.485 101.531 142.694 101.531C144.506 101.531 146.183 100.792 147.725 99.3125ZM194.262 76.25V82.8438L194.575 82.3438C197.325 77.9062 200.075 75.6875 202.825 75.6875C204.971 75.6875 207.21 76.7708 209.544 78.9375L206.544 83.9375C204.565 82.0625 202.731 81.125 201.044 81.125C199.21 81.125 197.617 82 196.262 83.75C194.929 85.5 194.262 87.5729 194.262 89.9688V105H188.544V76.25H194.262ZM257.831 76.25H264.613L252.331 90.3438L267.113 105H259.488L245.081 90.3438L257.831 76.25ZM239.144 61.3438H244.831V105H239.144V61.3438ZM317.994 91.125H297.775C297.921 93.875 298.837 96.0625 300.525 97.6875C302.233 99.3125 304.431 100.125 307.119 100.125C310.869 100.125 314.327 98.9583 317.494 96.625V102.188C315.744 103.354 314.004 104.188 312.275 104.688C310.567 105.188 308.556 105.438 306.244 105.438C303.077 105.438 300.515 104.781 298.556 103.469C296.598 102.156 295.025 100.396 293.837 98.1875C292.671 95.9583 292.087 93.3854 292.087 90.4688C292.087 86.0938 293.327 82.5417 295.806 79.8125C298.285 77.0625 301.504 75.6875 305.462 75.6875C309.275 75.6875 312.317 77.0208 314.587 79.6875C316.858 82.3542 317.994 85.9271 317.994 90.4062V91.125ZM297.9 87.7188H312.369C312.223 85.4479 311.546 83.6979 310.337 82.4688C309.129 81.2396 307.504 80.625 305.462 80.625C303.421 80.625 301.744 81.2396 300.431 82.4688C299.14 83.6979 298.296 85.4479 297.9 87.7188ZM355.875 76.25V82.8438L356.188 82.3438C358.938 77.9062 361.688 75.6875 364.438 75.6875C366.583 75.6875 368.823 76.7708 371.156 78.9375L368.156 83.9375C366.177 82.0625 364.344 81.125 362.656 81.125C360.823 81.125 359.229 82 357.875 83.75C356.542 85.5 355.875 87.5729 355.875 89.9688V105H350.156V76.25H355.875Z" fill="#E46B27"/>
<path d="M75.8125 161.844L73.4375 160.406C71.9479 159.5 70.8854 158.609 70.25 157.734C69.625 156.849 69.3125 155.833 69.3125 154.688C69.3125 152.969 69.9062 151.573 71.0938 150.5C72.2917 149.427 73.8438 148.891 75.75 148.891C77.5729 148.891 79.2448 149.401 80.7656 150.422V153.969C79.1927 152.458 77.5 151.703 75.6875 151.703C74.6667 151.703 73.8281 151.943 73.1719 152.422C72.5156 152.891 72.1875 153.495 72.1875 154.234C72.1875 154.891 72.4271 155.505 72.9062 156.078C73.3854 156.651 74.1615 157.25 75.2344 157.875L77.625 159.281C80.2917 160.865 81.625 162.885 81.625 165.344C81.625 167.094 81.0365 168.516 79.8594 169.609C78.6927 170.703 77.1719 171.25 75.2969 171.25C73.1406 171.25 71.1771 170.589 69.4062 169.266V165.297C71.0938 167.432 73.0469 168.5 75.2656 168.5C76.2448 168.5 77.0573 168.229 77.7031 167.688C78.3594 167.135 78.6875 166.448 78.6875 165.625C78.6875 164.292 77.7292 163.031 75.8125 161.844ZM109.722 164.062H99.6125C99.6854 165.438 100.144 166.531 100.987 167.344C101.842 168.156 102.941 168.562 104.284 168.562C106.159 168.562 107.889 167.979 109.472 166.812V169.594C108.597 170.177 107.727 170.594 106.862 170.844C106.008 171.094 105.003 171.219 103.847 171.219C102.264 171.219 100.982 170.891 100.003 170.234C99.024 169.578 98.2375 168.698 97.6437 167.594C97.0604 166.479 96.7687 165.193 96.7687 163.734C96.7687 161.547 97.3885 159.771 98.6281 158.406C99.8677 157.031 101.477 156.344 103.456 156.344C105.362 156.344 106.883 157.01 108.019 158.344C109.154 159.677 109.722 161.464 109.722 163.703V164.062ZM99.675 162.359H106.909C106.836 161.224 106.498 160.349 105.894 159.734C105.29 159.12 104.477 158.812 103.456 158.812C102.435 158.812 101.597 159.12 100.941 159.734C100.295 160.349 99.8729 161.224 99.675 162.359ZM128.662 156.625V159.922L128.819 159.672C130.194 157.453 131.569 156.344 132.944 156.344C134.017 156.344 135.136 156.885 136.303 157.969L134.803 160.469C133.814 159.531 132.897 159.062 132.053 159.062C131.136 159.062 130.34 159.5 129.662 160.375C128.996 161.25 128.662 162.286 128.662 163.484V171H125.803V156.625H128.662ZM160.869 156.625H163.947L157.603 171.25H156.65L150.15 156.625H153.259L157.134 165.469L160.869 156.625ZM180.372 150.578C180.841 150.578 181.242 150.74 181.575 151.062C181.908 151.385 182.075 151.781 182.075 152.25C182.075 152.708 181.908 153.104 181.575 153.438C181.242 153.771 180.841 153.938 180.372 153.938C179.934 153.938 179.549 153.771 179.216 153.438C178.882 153.094 178.716 152.698 178.716 152.25C178.716 151.812 178.882 151.427 179.216 151.094C179.549 150.75 179.934 150.578 180.372 150.578ZM178.966 156.625H181.809V171H178.966V156.625ZM209.516 167.641V170.453C208.089 170.984 206.693 171.25 205.328 171.25C203.078 171.25 201.281 170.583 199.938 169.25C198.604 167.917 197.938 166.13 197.938 163.891C197.938 161.63 198.589 159.807 199.891 158.422C201.193 157.036 202.906 156.344 205.031 156.344C205.771 156.344 206.432 156.417 207.016 156.562C207.609 156.698 208.339 156.958 209.203 157.344V160.375C207.766 159.458 206.432 159 205.203 159C203.922 159 202.87 159.453 202.047 160.359C201.224 161.255 200.812 162.401 200.812 163.797C200.812 165.266 201.255 166.432 202.141 167.297C203.036 168.161 204.24 168.594 205.75 168.594C206.844 168.594 208.099 168.276 209.516 167.641ZM237.816 164.062H227.706C227.779 165.438 228.238 166.531 229.081 167.344C229.935 168.156 231.034 168.562 232.378 168.562C234.253 168.562 235.982 167.979 237.566 166.812V169.594C236.691 170.177 235.821 170.594 234.956 170.844C234.102 171.094 233.097 171.219 231.941 171.219C230.357 171.219 229.076 170.891 228.097 170.234C227.118 169.578 226.331 168.698 225.738 167.594C225.154 166.479 224.863 165.193 224.863 163.734C224.863 161.547 225.482 159.771 226.722 158.406C227.961 157.031 229.571 156.344 231.55 156.344C233.456 156.344 234.977 157.01 236.113 158.344C237.248 159.677 237.816 161.464 237.816 163.703V164.062ZM227.769 162.359H235.003C234.93 161.224 234.592 160.349 233.988 159.734C233.383 159.12 232.571 158.812 231.55 158.812C230.529 158.812 229.691 159.12 229.034 159.734C228.389 160.349 227.967 161.224 227.769 162.359ZM262.741 162.359V168.469C262.741 168.958 262.907 169.203 263.241 169.203C263.584 169.203 264.121 168.948 264.85 168.438V170.172C264.204 170.589 263.683 170.87 263.288 171.016C262.902 171.172 262.496 171.25 262.069 171.25C260.85 171.25 260.131 170.771 259.913 169.812C258.704 170.75 257.418 171.219 256.053 171.219C255.053 171.219 254.22 170.891 253.553 170.234C252.886 169.568 252.553 168.734 252.553 167.734C252.553 166.828 252.876 166.021 253.522 165.312C254.178 164.594 255.105 164.026 256.303 163.609L259.944 162.359V161.594C259.944 159.865 259.079 159 257.35 159C255.798 159 254.288 159.802 252.819 161.406V158.297C253.923 156.995 255.511 156.344 257.584 156.344C259.136 156.344 260.381 156.75 261.319 157.562C261.631 157.823 261.913 158.172 262.163 158.609C262.413 159.036 262.569 159.469 262.631 159.906C262.704 160.333 262.741 161.151 262.741 162.359ZM259.944 168.156V163.891L258.038 164.625C257.069 165.01 256.381 165.401 255.975 165.797C255.579 166.182 255.381 166.667 255.381 167.25C255.381 167.844 255.569 168.328 255.944 168.703C256.329 169.078 256.824 169.266 257.428 169.266C258.334 169.266 259.173 168.896 259.944 168.156ZM280.041 149.172H282.884V157.656C284.114 156.76 285.426 156.312 286.822 156.312C288.645 156.312 290.134 157 291.291 158.375C292.447 159.75 293.025 161.516 293.025 163.672C293.025 165.984 292.332 167.828 290.947 169.203C289.572 170.568 287.728 171.25 285.416 171.25C284.489 171.25 283.509 171.151 282.478 170.953C281.457 170.755 280.645 170.505 280.041 170.203V149.172ZM282.884 160.375V168.156C283.853 168.448 284.848 168.594 285.869 168.594C287.129 168.594 288.155 168.146 288.947 167.25C289.749 166.354 290.15 165.203 290.15 163.797C290.15 162.37 289.775 161.208 289.025 160.312C288.285 159.417 287.317 158.969 286.119 158.969C285.056 158.969 283.978 159.438 282.884 160.375ZM310.434 150.578C310.903 150.578 311.304 150.74 311.637 151.062C311.971 151.385 312.137 151.781 312.137 152.25C312.137 152.708 311.971 153.104 311.637 153.438C311.304 153.771 310.903 153.938 310.434 153.938C309.997 153.938 309.611 153.771 309.278 153.438C308.945 153.094 308.778 152.698 308.778 152.25C308.778 151.812 308.945 151.427 309.278 151.094C309.611 150.75 309.997 150.578 310.434 150.578ZM309.028 156.625H311.872V171H309.028V156.625ZM328.859 149.172H331.703V171H328.859V149.172ZM350.097 150.578C350.566 150.578 350.967 150.74 351.3 151.062C351.633 151.385 351.8 151.781 351.8 152.25C351.8 152.708 351.633 153.104 351.3 153.438C350.967 153.771 350.566 153.938 350.097 153.938C349.659 153.938 349.274 153.771 348.941 153.438C348.607 153.094 348.441 152.698 348.441 152.25C348.441 151.812 348.607 151.427 348.941 151.094C349.274 150.75 349.659 150.578 350.097 150.578ZM348.691 156.625H351.534V171H348.691V156.625ZM366.444 158.906L371.788 153.656V156.625H376.334V159.188H371.788V166.234C371.788 167.88 372.47 168.703 373.834 168.703C374.855 168.703 375.933 168.359 377.069 167.672V170.328C375.975 170.943 374.782 171.25 373.491 171.25C372.189 171.25 371.105 170.87 370.241 170.109C369.97 169.88 369.746 169.625 369.569 169.344C369.392 169.052 369.241 168.677 369.116 168.219C369.001 167.75 368.944 166.865 368.944 165.562V159.188H366.444V158.906ZM400.712 156.625H403.916L393.744 178.328H390.572L395.462 167.922L389.9 156.625H393.134L397.009 164.734L400.712 156.625ZM75.7812 186.047H77.9844L87.75 208H84.5469L81.6406 201.531H72.3594L69.6094 208H66.4062L75.7812 186.047ZM80.3594 198.75L76.8438 190.844L73.5781 198.75H80.3594ZM105.409 193.625V195.453C106.68 194.047 108.123 193.344 109.737 193.344C110.633 193.344 111.467 193.578 112.237 194.047C113.008 194.505 113.592 195.141 113.987 195.953C114.394 196.755 114.597 198.031 114.597 199.781V208H111.753V199.812C111.753 198.344 111.529 197.297 111.081 196.672C110.633 196.036 109.883 195.719 108.831 195.719C107.487 195.719 106.347 196.391 105.409 197.734V208H102.503V193.625H105.409ZM140.397 199.359V205.469C140.397 205.958 140.564 206.203 140.897 206.203C141.241 206.203 141.777 205.948 142.506 205.438V207.172C141.86 207.589 141.34 207.87 140.944 208.016C140.558 208.172 140.152 208.25 139.725 208.25C138.506 208.25 137.787 207.771 137.569 206.812C136.36 207.75 135.074 208.219 133.709 208.219C132.709 208.219 131.876 207.891 131.209 207.234C130.543 206.568 130.209 205.734 130.209 204.734C130.209 203.828 130.532 203.021 131.178 202.312C131.834 201.594 132.761 201.026 133.959 200.609L137.6 199.359V198.594C137.6 196.865 136.735 196 135.006 196C133.454 196 131.944 196.802 130.475 198.406V195.297C131.579 193.995 133.168 193.344 135.241 193.344C136.793 193.344 138.037 193.75 138.975 194.562C139.287 194.823 139.569 195.172 139.819 195.609C140.069 196.036 140.225 196.469 140.287 196.906C140.36 197.333 140.397 198.151 140.397 199.359ZM137.6 205.156V200.891L135.694 201.625C134.725 202.01 134.037 202.401 133.631 202.797C133.235 203.182 133.037 203.667 133.037 204.25C133.037 204.844 133.225 205.328 133.6 205.703C133.985 206.078 134.48 206.266 135.084 206.266C135.991 206.266 136.829 205.896 137.6 205.156ZM157.884 186.172H160.728V208H157.884V186.172ZM186.137 193.625H189.341L179.169 215.328H175.997L180.887 204.922L175.325 193.625H178.559L182.434 201.734L186.137 193.625ZM203.469 206.969V203.906C204.271 204.469 205.089 204.927 205.922 205.281C206.766 205.625 207.474 205.797 208.047 205.797C208.641 205.797 209.151 205.651 209.578 205.359C210.005 205.068 210.219 204.719 210.219 204.312C210.219 203.896 210.078 203.552 209.797 203.281C209.526 203 208.932 202.599 208.016 202.078C206.182 201.057 204.979 200.188 204.406 199.469C203.844 198.74 203.562 197.948 203.562 197.094C203.562 195.99 203.99 195.089 204.844 194.391C205.708 193.693 206.818 193.344 208.172 193.344C209.578 193.344 211.021 193.74 212.5 194.531V197.344C210.812 196.323 209.432 195.812 208.359 195.812C207.807 195.812 207.359 195.932 207.016 196.172C206.682 196.401 206.516 196.708 206.516 197.094C206.516 197.427 206.667 197.745 206.969 198.047C207.281 198.349 207.823 198.714 208.594 199.141L209.609 199.719C212.005 201.073 213.203 202.573 213.203 204.219C213.203 205.396 212.74 206.365 211.812 207.125C210.896 207.875 209.714 208.25 208.266 208.25C207.411 208.25 206.651 208.161 205.984 207.984C205.318 207.797 204.479 207.458 203.469 206.969ZM230.753 187.578C231.222 187.578 231.623 187.74 231.956 188.062C232.29 188.385 232.456 188.781 232.456 189.25C232.456 189.708 232.29 190.104 231.956 190.438C231.623 190.771 231.222 190.938 230.753 190.938C230.316 190.938 229.93 190.771 229.597 190.438C229.264 190.094 229.097 189.698 229.097 189.25C229.097 188.812 229.264 188.427 229.597 188.094C229.93 187.75 230.316 187.578 230.753 187.578ZM229.347 193.625H232.191V208H229.347V193.625ZM248.413 206.969V203.906C249.215 204.469 250.032 204.927 250.866 205.281C251.709 205.625 252.418 205.797 252.991 205.797C253.584 205.797 254.095 205.651 254.522 205.359C254.949 205.068 255.163 204.719 255.163 204.312C255.163 203.896 255.022 203.552 254.741 203.281C254.47 203 253.876 202.599 252.959 202.078C251.126 201.057 249.923 200.188 249.35 199.469C248.788 198.74 248.506 197.948 248.506 197.094C248.506 195.99 248.933 195.089 249.788 194.391C250.652 193.693 251.761 193.344 253.116 193.344C254.522 193.344 255.965 193.74 257.444 194.531V197.344C255.756 196.323 254.376 195.812 253.303 195.812C252.751 195.812 252.303 195.932 251.959 196.172C251.626 196.401 251.459 196.708 251.459 197.094C251.459 197.427 251.61 197.745 251.913 198.047C252.225 198.349 252.767 198.714 253.538 199.141L254.553 199.719C256.949 201.073 258.147 202.573 258.147 204.219C258.147 205.396 257.683 206.365 256.756 207.125C255.84 207.875 254.657 208.25 253.209 208.25C252.355 208.25 251.595 208.161 250.928 207.984C250.261 207.797 249.423 207.458 248.413 206.969ZM81.8125 223.172H84.9219L75.7031 245.094H75L65.5938 223.172H68.7344L75.2969 238.5L81.8125 223.172ZM101.222 224.578C101.691 224.578 102.092 224.74 102.425 225.062C102.758 225.385 102.925 225.781 102.925 226.25C102.925 226.708 102.758 227.104 102.425 227.438C102.092 227.771 101.691 227.938 101.222 227.938C100.784 227.938 100.399 227.771 100.066 227.438C99.7323 227.094 99.5656 226.698 99.5656 226.25C99.5656 225.812 99.7323 225.427 100.066 225.094C100.399 224.75 100.784 224.578 101.222 224.578ZM99.8156 230.625H102.659V245H99.8156V230.625ZM118.881 243.969V240.906C119.683 241.469 120.501 241.927 121.334 242.281C122.178 242.625 122.886 242.797 123.459 242.797C124.053 242.797 124.564 242.651 124.991 242.359C125.418 242.068 125.631 241.719 125.631 241.312C125.631 240.896 125.491 240.552 125.209 240.281C124.939 240 124.345 239.599 123.428 239.078C121.595 238.057 120.392 237.188 119.819 236.469C119.256 235.74 118.975 234.948 118.975 234.094C118.975 232.99 119.402 232.089 120.256 231.391C121.121 230.693 122.23 230.344 123.584 230.344C124.991 230.344 126.433 230.74 127.912 231.531V234.344C126.225 233.323 124.845 232.812 123.772 232.812C123.22 232.812 122.772 232.932 122.428 233.172C122.095 233.401 121.928 233.708 121.928 234.094C121.928 234.427 122.079 234.745 122.381 235.047C122.694 235.349 123.235 235.714 124.006 236.141L125.022 236.719C127.418 238.073 128.616 239.573 128.616 241.219C128.616 242.396 128.152 243.365 127.225 244.125C126.308 244.875 125.126 245.25 123.678 245.25C122.824 245.25 122.064 245.161 121.397 244.984C120.73 244.797 119.892 244.458 118.881 243.969ZM153.853 245V243.172C153.249 243.828 152.556 244.339 151.775 244.703C151.004 245.068 150.233 245.25 149.463 245.25C148.556 245.25 147.718 245.026 146.947 244.578C146.186 244.12 145.608 243.505 145.213 242.734C144.827 241.953 144.634 240.661 144.634 238.859V230.625H147.478V238.828C147.478 240.339 147.692 241.396 148.119 242C148.556 242.594 149.317 242.891 150.4 242.891C151.754 242.891 152.905 242.229 153.853 240.906V230.625H156.697V245H153.853ZM182.528 236.359V242.469C182.528 242.958 182.695 243.203 183.028 243.203C183.372 243.203 183.908 242.948 184.637 242.438V244.172C183.992 244.589 183.471 244.87 183.075 245.016C182.69 245.172 182.283 245.25 181.856 245.25C180.637 245.25 179.919 244.771 179.7 243.812C178.492 244.75 177.205 245.219 175.841 245.219C174.841 245.219 174.007 244.891 173.341 244.234C172.674 243.568 172.341 242.734 172.341 241.734C172.341 240.828 172.664 240.021 173.309 239.312C173.966 238.594 174.893 238.026 176.091 237.609L179.731 236.359V235.594C179.731 233.865 178.867 233 177.137 233C175.585 233 174.075 233.802 172.606 235.406V232.297C173.71 230.995 175.299 230.344 177.372 230.344C178.924 230.344 180.169 230.75 181.106 231.562C181.419 231.823 181.7 232.172 181.95 232.609C182.2 233.036 182.356 233.469 182.419 233.906C182.492 234.333 182.528 235.151 182.528 236.359ZM179.731 242.156V237.891L177.825 238.625C176.856 239.01 176.169 239.401 175.762 239.797C175.367 240.182 175.169 240.667 175.169 241.25C175.169 241.844 175.356 242.328 175.731 242.703C176.117 243.078 176.611 243.266 177.216 243.266C178.122 243.266 178.96 242.896 179.731 242.156ZM200.016 223.172H202.859V245H200.016V223.172ZM221.253 224.578C221.722 224.578 222.123 224.74 222.456 225.062C222.79 225.385 222.956 225.781 222.956 226.25C222.956 226.708 222.79 227.104 222.456 227.438C222.123 227.771 221.722 227.938 221.253 227.938C220.816 227.938 220.43 227.771 220.097 227.438C219.764 227.094 219.597 226.698 219.597 226.25C219.597 225.812 219.764 225.427 220.097 225.094C220.43 224.75 220.816 224.578 221.253 224.578ZM219.847 230.625H222.691V245H219.847V230.625ZM238.272 230.625H250.553L242.944 242.344H250.553V245H237.959L245.506 233.281H238.272V230.625ZM278.009 238.062H267.9C267.973 239.438 268.431 240.531 269.275 241.344C270.129 242.156 271.228 242.562 272.572 242.562C274.447 242.562 276.176 241.979 277.759 240.812V243.594C276.884 244.177 276.015 244.594 275.15 244.844C274.296 245.094 273.291 245.219 272.134 245.219C270.551 245.219 269.27 244.891 268.291 244.234C267.311 243.578 266.525 242.698 265.931 241.594C265.348 240.479 265.056 239.193 265.056 237.734C265.056 235.547 265.676 233.771 266.916 232.406C268.155 231.031 269.765 230.344 271.744 230.344C273.65 230.344 275.171 231.01 276.306 232.344C277.442 233.677 278.009 235.464 278.009 237.703V238.062ZM267.962 236.359H275.197C275.124 235.224 274.785 234.349 274.181 233.734C273.577 233.12 272.765 232.812 271.744 232.812C270.723 232.812 269.884 233.12 269.228 233.734C268.582 234.349 268.16 235.224 267.962 236.359ZM296.95 230.625V233.922L297.106 233.672C298.481 231.453 299.856 230.344 301.231 230.344C302.304 230.344 303.424 230.885 304.591 231.969L303.091 234.469C302.101 233.531 301.184 233.062 300.341 233.062C299.424 233.062 298.627 233.5 297.95 234.375C297.283 235.25 296.95 236.286 296.95 237.484V245H294.091V230.625H296.95Z" fill="white"/>
</svg>
